<svg width="23" height="23" viewBox="0 0 23 23" fill="none" xmlns="http://www.w3.org/2000/svg">
<path d="M21.0833 8.14584H18.721L15.1752 2.8223C15.0341 2.61084 14.8148 2.46407 14.5656 2.41429C14.3163 2.3645 14.0574 2.41578 13.846 2.55684C13.6345 2.69791 13.4877 2.9172 13.438 3.16647C13.3882 3.41575 13.4395 3.67459 13.5805 3.88605L16.4181 8.14584H6.58181L9.42231 3.88605C9.56337 3.67459 9.61465 3.41575 9.56487 3.16647C9.51509 2.9172 9.36832 2.69791 9.15685 2.55684C8.94539 2.41578 8.68655 2.3645 8.43727 2.41429C8.188 2.46407 7.96871 2.61084 7.82765 2.8223L4.27894 8.14584H1.91665C1.66248 8.14584 1.41872 8.24681 1.239 8.42653C1.05928 8.60626 0.958313 8.85001 0.958313 9.10418C0.958313 9.35834 1.05928 9.6021 1.239 9.78182C1.41872 9.96154 1.66248 10.0625 1.91665 10.0625H2.87498V17.7292C2.87498 18.4917 3.17788 19.2229 3.71705 19.7621C4.25621 20.3013 4.98748 20.6042 5.74998 20.6042H17.25C18.0125 20.6042 18.7437 20.3013 19.2829 19.7621C19.8221 19.2229 20.125 18.4917 20.125 17.7292V10.0625H21.0833C21.3375 10.0625 21.5812 9.96154 21.761 9.78182C21.9407 9.6021 22.0416 9.35834 22.0416 9.10418C22.0416 8.85001 21.9407 8.60626 21.761 8.42653C21.5812 8.24681 21.3375 8.14584 21.0833 8.14584ZM18.2083 17.7292C18.2083 17.9833 18.1073 18.2271 17.9276 18.4068C17.7479 18.5865 17.5041 18.6875 17.25 18.6875H5.74998C5.49581 18.6875 5.25206 18.5865 5.07234 18.4068C4.89261 18.2271 4.79165 17.9833 4.79165 17.7292V10.0625H18.2083V17.7292ZM6.70831 16.2917V12.4583C6.70831 12.2042 6.80928 11.9604 6.989 11.7807C7.16872 11.601 7.41248 11.5 7.66665 11.5C7.92081 11.5 8.16457 11.601 8.34429 11.7807C8.52401 11.9604 8.62498 12.2042 8.62498 12.4583V16.2917C8.62498 16.5458 8.52401 16.7896 8.34429 16.9693C8.16457 17.149 7.92081 17.25 7.66665 17.25C7.41248 17.25 7.16872 17.149 6.989 16.9693C6.80928 16.7896 6.70831 16.5458 6.70831 16.2917ZM10.5416 16.2917V12.4583C10.5416 12.2042 10.6426 11.9604 10.8223 11.7807C11.0021 11.601 11.2458 11.5 11.5 11.5C11.7541 11.5 11.9979 11.601 12.1776 11.7807C12.3573 11.9604 12.4583 12.2042 12.4583 12.4583V16.2917C12.4583 16.5458 12.3573 16.7896 12.1776 16.9693C11.9979 17.149 11.7541 17.25 11.5 17.25C11.2458 17.25 11.0021 17.149 10.8223 16.9693C10.6426 16.7896 10.5416 16.5458 10.5416 16.2917ZM14.375 16.2917V12.4583C14.375 12.2042 14.4759 11.9604 14.6557 11.7807C14.8354 11.601 15.0791 11.5 15.3333 11.5C15.5875 11.5 15.8312 11.601 16.011 11.7807C16.1907 11.9604 16.2916 12.2042 16.2916 12.4583V16.2917C16.2916 16.5458 16.1907 16.7896 16.011 16.9693C15.8312 17.149 15.5875 17.25 15.3333 17.25C15.0791 17.25 14.8354 17.149 14.6557 16.9693C14.4759 16.7896 14.375 16.5458 14.375 16.2917Z" fill="#FF7A00"/>
</svg>
