<svg width="21" height="21" viewBox="0 0 21 21" fill="none" xmlns="http://www.w3.org/2000/svg">
<path d="M20.1296 7.329H12.2531C12.2518 7.329 12.2506 7.32457 12.2493 7.32338L11.583 6.75815L18.1049 1.23441C18.3999 0.984583 18.4365 0.542722 18.1867 0.247779C17.9369 -0.0471646 17.4953 -0.0839556 17.2003 0.165912L10.5 5.84014L3.79978 0.165871C3.50475 -0.0840376 3.06318 -0.0473697 2.81335 0.247615C2.56353 0.542599 2.60015 0.984214 2.89514 1.23396L9.41703 6.75716L8.75078 7.32338C8.74942 7.32453 8.74827 7.32896 8.74692 7.32896H0.870484C0.483953 7.32896 0.188477 7.63838 0.188477 8.02492V9.14874C0.188477 13.2974 2.73727 16.8587 6.36026 18.3376C6.35981 18.3482 6.34742 18.3586 6.34742 18.3693V20.3036C6.34742 20.6901 6.66538 20.9999 7.05191 20.9999H13.9482C14.3347 20.9999 14.6527 20.6901 14.6527 20.3036V18.3693C14.6527 18.3586 14.6403 18.3482 14.6398 18.3376C18.2628 16.8587 20.8116 13.2974 20.8116 9.14874V8.02492C20.8116 7.63842 20.5162 7.329 20.1296 7.329ZM13.2529 19.6002H7.74717V19.087H10.091H10.909H13.2529V19.6002H13.2529ZM19.4118 9.14878C19.4118 13.8471 15.6074 17.6872 10.909 17.6872H10.0911C5.39275 17.6872 1.58826 13.8471 1.58826 9.14878V8.72874H19.4119L19.4118 9.14878Z" fill="#FF7A00"/>
</svg>
