<svg width="286" height="412" viewBox="0 0 286 412" fill="none" xmlns="http://www.w3.org/2000/svg">
<path d="M142.994 0C64.1461 0 0 64.1452 0 142.982C0 218.87 129.741 396.17 135.265 403.678L140.421 410.693C141.024 411.518 141.984 412 142.994 412C144.019 412 144.973 411.518 145.583 410.693L150.735 403.678C156.262 396.17 286 218.87 286 142.982C286 64.1452 221.843 0 142.994 0ZM142.994 91.7663C171.245 91.7663 194.218 114.737 194.218 142.982C194.218 171.214 171.244 194.198 142.994 194.198C114.759 194.198 91.7696 171.214 91.7696 142.982C91.7696 114.737 114.758 91.7663 142.994 91.7663Z" fill="#FF6969"/>
</svg>
