<svg width="22" height="22" viewBox="0 0 22 22" fill="none" xmlns="http://www.w3.org/2000/svg">
<g clip-path="url(#clip0_98_4)">
<path d="M11 0C6.41135 0 2.67822 3.73319 2.67822 8.32182C2.67822 10.2145 3.98286 12.9823 6.55582 16.5483C8.41597 19.1263 10.2461 21.1633 10.3231 21.2487L11.0001 22.0001L11.6771 21.2487C11.7541 21.1633 13.5842 19.1263 15.4444 16.5483C18.0173 12.9823 19.322 10.2146 19.322 8.32182C19.3219 3.73319 15.5887 0 11 0ZM11 19.2557C8.7077 16.5759 4.50077 11.0863 4.50077 8.32182C4.50077 4.73814 7.41631 1.82255 11 1.82255C14.5838 1.82255 17.4993 4.73814 17.4993 8.32182C17.4994 11.0863 13.2924 16.5759 11 19.2557Z" fill="#FF7A00"/>
<path d="M11.0001 11.341C12.6675 11.341 14.0192 9.98926 14.0192 8.32185C14.0192 6.65444 12.6675 5.30273 11.0001 5.30273C9.33266 5.30273 7.98096 6.65444 7.98096 8.32185C7.98096 9.98926 9.33266 11.341 11.0001 11.341Z" fill="#FF7A00"/>
</g>
<defs>
<clipPath id="clip0_98_4">
<rect width="22" height="22" fill="white"/>
</clipPath>
</defs>
</svg>
